<?xml version="1.0" encoding="UTF-8"?>
<svg width="24px" height="24px" viewBox="0 0 24 24" version="1.1" xmlns="http://www.w3.org/2000/svg" xmlns:xlink="http://www.w3.org/1999/xlink">
    <!-- Generator: Sketch 50.2 (55047) - http://www.bohemiancoding.com/sketch -->
    <title>Stockholm-icons / Navigation / Up-down</title>
    <desc>Created with Sketch.</desc>
    <defs></defs>
    <g id="Stockholm-icons-/-Navigation-/-Up-down" stroke="none" stroke-width="1" fill="none" fill-rule="evenodd">
        <polygon id="Shape" points="0 0 24 0 24 24 0 24"></polygon>
        <rect id="Rectangle" fill="#00BFFF" opacity="0.3" transform="translate(6.000000, 11.000000) rotate(-180.000000) translate(-6.000000, -11.000000) " x="5" y="5" width="2" height="12" rx="1"></rect>
        <path d="M8.29289322,14.2928932 C8.68341751,13.9023689 9.31658249,13.9023689 9.70710678,14.2928932 C10.0976311,14.6834175 10.0976311,15.3165825 9.70710678,15.7071068 L6.70710678,18.7071068 C6.31658249,19.0976311 5.68341751,19.0976311 5.29289322,18.7071068 L2.29289322,15.7071068 C1.90236893,15.3165825 1.90236893,14.6834175 2.29289322,14.2928932 C2.68341751,13.9023689 3.31658249,13.9023689 3.70710678,14.2928932 L6,16.5857864 L8.29289322,14.2928932 Z" id="Path-104" fill="#0000FF" fill-rule="nonzero"></path>
    </g>
</svg>